<svg width="48" height="48" viewBox="0 0 48 48" fill="none" xmlns="http://www.w3.org/2000/svg">
<circle cx="24" cy="24" r="24" fill="#5836D3"/>
<circle cx="23.9999" cy="24" r="18.8148" fill="white"/>
<path d="M22 18.95V17M24 18.95V17M22 27.6167V30M24 27.6167V30" stroke="#5836D3" stroke-width="0.5" stroke-linecap="round"/>
<path d="M24.7647 17.8741H19.7407V29.0741H24.9247C25.5433 29.0741 26.1087 29.0101 26.6207 28.8821C27.1327 28.7434 27.57 28.5461 27.9327 28.2901C28.2953 28.0234 28.5727 27.6981 28.7647 27.3141C28.9673 26.9301 29.0687 26.4874 29.0687 25.9861C29.0687 25.6021 29.0153 25.2661 28.9087 24.9781C28.802 24.6794 28.6473 24.4234 28.4447 24.2101C28.2527 23.9967 28.018 23.8154 27.7407 23.6661C27.474 23.5061 27.1753 23.3674 26.8447 23.2501C27.0473 23.1434 27.2447 23.0154 27.4367 22.8661C27.6393 22.7167 27.81 22.5461 27.9487 22.3541C28.098 22.1514 28.2153 21.9167 28.3007 21.6501C28.3967 21.3834 28.4447 21.0794 28.4447 20.7381C28.4447 19.8527 28.114 19.1541 27.4527 18.6421C26.7913 18.1301 25.8953 17.8741 24.7647 17.8741ZM24.3647 22.5941H21.6767V19.6181H24.5087C25.1487 19.6181 25.634 19.7461 25.9647 20.0021C26.306 20.2474 26.4767 20.5994 26.4767 21.0581C26.4767 21.5807 26.2847 21.9701 25.9007 22.2261C25.5167 22.4714 25.0047 22.5941 24.3647 22.5941ZM24.9407 27.3301H21.6767V24.2581H24.7967C25.5753 24.2581 26.1513 24.3914 26.5247 24.6581C26.9087 24.9247 27.1007 25.2981 27.1007 25.7781C27.1007 26.2901 26.9087 26.6794 26.5247 26.9461C26.1407 27.2021 25.6127 27.3301 24.9407 27.3301Z" fill="#5836D3"/>
</svg>
