<svg width="56" height="56" viewBox="0 0 56 56" fill="none" xmlns="http://www.w3.org/2000/svg">
<circle cx="28" cy="28" r="28" fill="#E5E5E5"/>
<circle cx="27.9999" cy="28" r="21.9506" fill="white"/>
<path d="M26.1333 22.1667V20.0667M28.4666 22.1667V20.0667M26.1333 31.5V34.0667M28.4666 31.5V34.0667" stroke="#B2B2B2" stroke-linecap="round"/>
<path d="M28.777 21.5531H23.753V32.7531H28.937C29.5557 32.7531 30.121 32.6891 30.633 32.5611C31.145 32.4224 31.5824 32.2251 31.945 31.9691C32.3077 31.7024 32.585 31.3771 32.777 30.9931C32.9797 30.6091 33.081 30.1664 33.081 29.6651C33.081 29.2811 33.0277 28.9451 32.921 28.6571C32.8144 28.3584 32.6597 28.1024 32.457 27.8891C32.265 27.6757 32.0304 27.4944 31.753 27.3451C31.4864 27.1851 31.1877 27.0464 30.857 26.9291C31.0597 26.8224 31.257 26.6944 31.449 26.5451C31.6517 26.3957 31.8224 26.2251 31.961 26.0331C32.1104 25.8304 32.2277 25.5957 32.313 25.3291C32.409 25.0624 32.457 24.7584 32.457 24.4171C32.457 23.5317 32.1264 22.8331 31.465 22.3211C30.8037 21.8091 29.9077 21.5531 28.777 21.5531ZM28.377 26.2731H25.689V23.2971H28.521C29.161 23.2971 29.6464 23.4251 29.977 23.6811C30.3184 23.9264 30.489 24.2784 30.489 24.7371C30.489 25.2597 30.297 25.6491 29.913 25.9051C29.529 26.1504 29.017 26.2731 28.377 26.2731ZM28.953 31.0091H25.689V27.9371H28.809C29.5877 27.9371 30.1637 28.0704 30.537 28.3371C30.921 28.6037 31.113 28.9771 31.113 29.4571C31.113 29.9691 30.921 30.3584 30.537 30.6251C30.153 30.8811 29.625 31.0091 28.953 31.0091Z" fill="#B2B2B2"/>
</svg>
