<svg width="412" height="412" viewBox="0 0 412 412" fill="none" xmlns="http://www.w3.org/2000/svg">
<g id="circles 1">
<path id="Vector" d="M206 411.5C319.495 411.5 411.5 319.495 411.5 206C411.5 92.5055 319.495 0.5 206 0.5C92.5055 0.5 0.5 92.5055 0.5 206C0.5 319.495 92.5055 411.5 206 411.5Z" stroke="#371841" stroke-linecap="square" stroke-linejoin="round" stroke-dasharray="40 10"/>
<path id="Vector_2" d="M206 388.335C306.701 388.335 388.335 306.701 388.335 206C388.335 105.299 306.701 23.665 206 23.665C105.299 23.665 23.665 105.299 23.665 206C23.665 306.701 105.299 388.335 206 388.335Z" stroke="#371841" stroke-linecap="square" stroke-linejoin="round" stroke-dasharray="40 10"/>
<path id="Vector_3" d="M206 365.998C294.364 365.998 365.998 294.364 365.998 206C365.998 117.636 294.364 46.002 206 46.002C117.636 46.002 46.002 117.636 46.002 206C46.002 294.364 117.636 365.998 206 365.998Z" stroke="#371841" stroke-linecap="square" stroke-linejoin="round" stroke-dasharray="40 10"/>
<path id="Vector_4" d="M206 342.833C281.571 342.833 342.833 281.571 342.833 206C342.833 130.429 281.571 69.167 206 69.167C130.429 69.167 69.167 130.429 69.167 206C69.167 281.571 130.429 342.833 206 342.833Z" stroke="#371841" stroke-linecap="square" stroke-linejoin="round" stroke-dasharray="40 10"/>
<path id="Vector_5" d="M206 319.669C268.778 319.669 319.669 268.778 319.669 206C319.669 143.222 268.778 92.331 206 92.331C143.222 92.331 92.331 143.222 92.331 206C92.331 268.778 143.222 319.669 206 319.669Z" stroke="#371841" stroke-linecap="square" stroke-linejoin="round" stroke-dasharray="40 10"/>
<path id="Vector_6" d="M206 297.331C256.441 297.331 297.331 256.441 297.331 206C297.331 155.559 256.441 114.669 206 114.669C155.559 114.669 114.669 155.559 114.669 206C114.669 256.441 155.559 297.331 206 297.331Z" stroke="#371841" stroke-linecap="square" stroke-linejoin="round" stroke-dasharray="40 10"/>
<path id="Vector_7" d="M206 274.167C243.647 274.167 274.167 243.647 274.167 206C274.167 168.353 243.647 137.833 206 137.833C168.353 137.833 137.833 168.353 137.833 206C137.833 243.647 168.353 274.167 206 274.167Z" stroke="#371841" stroke-linecap="square" stroke-linejoin="round" stroke-dasharray="40 10"/>
<path id="Vector_8" d="M206 236.11C222.63 236.11 236.11 222.63 236.11 206C236.11 189.37 222.63 175.89 206 175.89C189.37 175.89 175.89 189.37 175.89 206C175.89 222.63 189.37 236.11 206 236.11Z" stroke="#371841"/>
</g>
</svg>
