<svg width="54" height="43" viewBox="0 0 54 43" fill="none" xmlns="http://www.w3.org/2000/svg">
<path d="M50.7664 42.8765H3.23357C1.44771 42.8765 0 41.392 0 39.5606V4.00183C0 2.1705 1.44771 0.685913 3.23357 0.685913H50.7651C52.5523 0.685913 54 2.1705 54 4.00183V39.5593C54 41.392 52.5523 42.8765 50.7664 42.8765Z" fill="#E1E1E1"/>
<path d="M50.7663 42.8766H6.42847L53.9999 4.6413V39.5606C53.9999 41.392 52.5522 42.8766 50.7663 42.8766Z" fill="#E1E1E1"/>
<path d="M50.7664 42.8765H35.3764L0 5.28074V4.00315C0 2.1705 1.44771 0.685913 3.23357 0.685913H50.7651C52.5523 0.685913 54 2.1705 54 4.00183V39.5593C54 41.392 52.5523 42.8765 50.7664 42.8765Z" fill="#E1E1E1"/>
<path d="M52.4854 7.41136L27 26.3418L1.51457 7.41136C0.563143 6.70467 0 5.57344 0 4.36837V4.00183C0 2.1705 1.44771 0.685913 3.23357 0.685913H50.7651C52.5523 0.685913 54 2.1705 54 4.00183V4.36837C54 5.57344 53.4369 6.70467 52.4854 7.41136Z" fill="#E1E1E1"/>
<path d="M3.23357 2.66359H6.42857V42.8765H3.23357C1.44771 42.8765 0 41.4615 0 39.7161V3.98206C0 2.23657 1.44771 2.66359 3.23357 2.66359ZM50.7664 2.66359H47.5714V42.8765H50.7664C52.5523 42.8765 54 41.4615 54 39.7161V4.31165C54 2.56615 52.5523 2.66359 50.7664 2.66359Z" fill="#BDBDBD"/>
<path d="M50.7664 0.685913H50.3807L27 18.0526L3.61929 0.685913H3.23357C1.44771 0.685913 0 2.1705 0 4.00183V4.36837C0 5.57344 0.563143 6.70467 1.51457 7.41136L27 26.3418L52.4854 7.41136C53.4369 6.70467 54 5.57344 54 4.36837V4.00183C54 2.1705 52.5523 0.685913 50.7664 0.685913Z" fill="#BDBDBD"/>
</svg>
