<svg width="73" height="71" viewBox="0 0 73 71" fill="none" xmlns="http://www.w3.org/2000/svg">
<path d="M19 0L23.3301 6.75H14.6699L19 0Z" fill="#371841"/>
<path d="M19 4V50H67" stroke="#371841" stroke-width="3"/>
<path d="M73 50L66.25 54.3301L66.25 45.6699L73 50Z" fill="#371841"/>
<line x1="29.5308" y1="9.88464" x2="29.5308" y2="40.7616" stroke="#121212" stroke-linecap="round"/>
<line x1="58.1309" y1="15.577" x2="27.2539" y2="15.577" stroke="#121212" stroke-linecap="round"/>
<line x1="58.1309" y1="22.4077" x2="27.2539" y2="22.4077" stroke="#121212" stroke-linecap="round"/>
<line x1="58.1309" y1="29.2385" x2="27.2539" y2="29.2385" stroke="#121212" stroke-linecap="round"/>
<line x1="58.1309" y1="36.0693" x2="27.2539" y2="36.0693" stroke="#121212" stroke-linecap="round"/>
<line x1="36.3616" y1="9.88464" x2="36.3616" y2="40.7616" stroke="#121212" stroke-linecap="round"/>
<line x1="43.1924" y1="9.88464" x2="43.1924" y2="40.7616" stroke="#121212" stroke-linecap="round"/>
<line x1="50.0231" y1="9.88464" x2="50.0231" y2="40.7616" stroke="#121212" stroke-linecap="round"/>
<line x1="56.8539" y1="9.88464" x2="56.8539" y2="40.7616" stroke="#121212" stroke-linecap="round"/>
<path d="M39.2769 50.6538C39.2769 61.4999 30.4845 70.2923 19.6385 70.2923C8.79244 70.2923 0 61.4999 0 50.6538C0 39.8078 8.79244 31.0154 19.6385 31.0154C30.4845 31.0154 39.2769 39.8078 39.2769 50.6538Z" fill="#371841"/>
<path d="M19.3538 70.0077C30.1998 70.0077 38.9923 61.2152 38.9923 50.3692H19.3538V70.0077Z" fill="#E89532" stroke="#E89532"/>
</svg>
