<svg width="51" height="47" viewBox="0 0 51 47" fill="none" xmlns="http://www.w3.org/2000/svg">
<path d="M12.4992 46.2593C-12.469 40.6421 5.66264 19.6878 17.8495 9.91273C16.066 9.4997 12.2316 7.76496 11.1615 4.13032C10.0914 0.49567 15.1743 2.61588 17.8495 4.13032C15.3527 2.4782 16.8092 0.688389 17.8495 0H28.9959C34.3462 0 33.3059 2.75354 32.1169 4.13032C38.894 2.4782 38.8048 4.8187 37.9131 6.19547L33.9004 9.91273C62.4354 34.0337 48.4651 44.1942 37.9131 46.2593H12.4992Z" fill="#E5E5E5"/>
<path d="M18.5994 10.093H33.4035M18.5994 10.093C16.5059 11.7241 11.96 15.8837 10.5244 19.4723M18.5994 10.093C17.104 11.8601 14.3824 17.0255 15.4591 23.5502" stroke="#B2B2B2" stroke-width="3" stroke-linecap="round"/>
<path d="M24.9606 36.7091L20.4246 28.7891V27.7331H20.9526C22.2326 27.7331 23.2086 27.5491 23.8806 27.1811C24.5686 26.8131 24.9686 26.1491 25.0806 25.1891H20.4246V23.6531H25.0566C24.8966 22.7571 24.4726 22.1091 23.7846 21.7091C23.1126 21.3091 22.1686 21.1091 20.9526 21.1091H20.4246V19.5731H30.3606V21.1091H25.8246C26.5926 21.7331 27.0486 22.5811 27.1926 23.6531H30.3606V25.1891H27.2406C27.1286 26.3571 26.6806 27.2691 25.8966 27.9251C25.1286 28.5651 24.1046 28.9731 22.8246 29.1491L27.4086 36.7091H24.9606Z" fill="#B2B2B2"/>
</svg>
